<mxfile host="app.diagrams.net" modified="2023-10-29T12:42:59.796Z" agent="Mozilla/5.0 (Windows NT 10.0; Win64; x64; rv:109.0) Gecko/20100101 Firefox/119.0" version="22.0.8" etag="GiuynLOPm395AfR5FmW5" type="github">
  <diagram name="Page-1" id="Q1vD8Q8Z_gL3_xlNReam">
    <mxGraphModel>
      <root>
        <mxCell id="0" />
        <mxCell id="1" parent="0" />
      </root>
    </mxGraphModel>
  </diagram>
</mxfile>
